<?xml version="1.0" encoding="utf-8"?>
<!-- Generator: Adobe Illustrator 23.0.6, SVG Export Plug-In . SVG Version: 6.00 Build 0)  -->
<svg version="1.1" id="Layer_1" xmlns="http://www.w3.org/2000/svg" xmlns:xlink="http://www.w3.org/1999/xlink" x="0px" y="0px"
	 viewBox="0 0 20 20" style="enable-background:new 0 0 20 20;" xml:space="preserve">
<style type="text/css">
	.st0{fill:#0FC10A;}
</style>
<path class="st0" d="M3.1,17.2C-0.9,13.4-1,7,2.8,3.1S13-1,16.9,2.8C17,2.9,17.1,3,17.2,3.1c3.8,4,3.7,10.3-0.2,14.1
	C13.1,20.9,6.9,20.9,3.1,17.2z M15.8,15.8c3.1-3.1,3.1-8.2,0-11.3s-8.2-3.1-11.3,0s-3.1,8.2,0,11.3S12.7,18.9,15.8,15.8z M6.8,9.4
	l2.3,2.3l4.3-4.3l1.4,1.4l-5.7,5.7l-3.7-3.7L6.8,9.4L6.8,9.4z"/>
</svg>
